<?xml version="1.0" standalone="no"?>
<!DOCTYPE svg PUBLIC "-//W3C//DTD SVG 20010904//EN"
 "http://www.w3.org/TR/2001/REC-SVG-20010904/DTD/svg10.dtd">
<svg version="1.0" xmlns="http://www.w3.org/2000/svg"
 width="512.000000pt" height="512.000000pt" viewBox="0 0 512.000000 512.000000"
 preserveAspectRatio="xMidYMid meet">

<g transform="translate(0.000000,512.000000) scale(0.100000,-0.100000)"
fill="#000000" stroke="none">
<path d="M2375 4703 c-82 -58 -195 -138 -250 -176 -141 -100 -407 -299 -449
-338 -32 -29 -35 -35 -22 -47 13 -13 24 -9 86 27 39 22 74 41 77 41 4 0 492
324 676 450 57 38 51 39 172 -46 317 -225 612 -419 715 -470 74 -37 84 -6 18
50 -130 108 -843 617 -865 616 -4 -1 -75 -49 -158 -107z"/>
<path d="M520 2638 c0 -1968 1 -2098 17 -2114 32 -32 158 -108 177 -106 10 0
28 10 40 21 12 12 25 21 29 21 4 0 42 25 86 55 44 30 82 55 85 55 28 0 246
170 246 192 0 19 -18 13 -200 -69 -19 -9 -95 -45 -167 -80 -146 -72 -171 -75
-198 -23 -13 26 -15 259 -15 2019 l0 1991 -35 47 c-19 27 -41 57 -49 68 -13
18 -15 -230 -16 -2077z"/>
<path d="M4540 4698 c0 -7 -16 -31 -36 -52 l-36 -39 -2 -2006 c-1 -1582 -4
-2011 -14 -2029 -10 -17 -22 -22 -50 -22 -21 0 -46 6 -57 13 -43 29 -138 78
-256 130 -193 85 -246 97 -183 42 25 -22 347 -239 450 -303 l37 -23 86 58 86
58 3 2040 c2 1122 0 2064 -3 2093 -4 28 -11 52 -16 52 -5 0 -9 -6 -9 -12z"/>
<path d="M2447 4349 l-87 -92 0 -68 0 -69 179 0 179 0 12 35 c19 59 5 91 -88
189 -47 50 -91 92 -97 94 -6 1 -51 -39 -98 -89z"/>
<path d="M4285 4377 c-11 -8 -40 -25 -65 -39 -25 -14 -67 -38 -95 -53 -72 -41
-430 -255 -495 -297 -30 -19 -161 -100 -290 -178 -346 -210 -348 -211 -354
-244 -10 -47 -7 -186 4 -186 8 0 100 59 505 325 44 29 142 91 217 139 271 171
463 297 475 313 7 8 19 13 28 10 13 -6 15 -142 15 -1309 0 -827 -4 -1316 -10
-1339 -9 -31 -23 -43 -117 -100 -59 -35 -112 -66 -118 -68 -5 -2 -12 -7 -15
-10 -7 -9 -179 -121 -185 -121 -3 0 -27 -16 -54 -35 -26 -19 -52 -35 -56 -35
-4 0 -106 -66 -227 -148 -120 -81 -229 -154 -242 -162 -13 -8 -84 -57 -157
-109 -74 -51 -192 -132 -264 -179 -71 -47 -155 -105 -186 -129 -30 -23 -59
-43 -64 -43 -4 0 -24 12 -44 28 -19 15 -45 34 -57 42 -30 20 -216 152 -229
162 -5 4 -23 18 -40 31 -16 13 -115 81 -220 151 -104 70 -215 145 -245 167
-67 49 -218 149 -224 149 -3 0 -60 38 -128 84 -68 46 -199 132 -291 191 -102
65 -171 116 -176 129 -12 35 -14 2633 -1 2641 6 3 55 -24 110 -62 55 -37 108
-72 117 -78 9 -5 131 -84 272 -174 288 -185 356 -228 421 -267 25 -15 103 -65
173 -111 71 -47 130 -83 132 -81 6 6 7 33 6 125 l-1 92 -57 37 c-55 36 -233
142 -318 189 -22 13 -89 53 -150 90 -181 112 -336 203 -705 418 -69 40 -85 46
-93 38 -8 -8 -15 -2947 -6 -2954 19 -16 152 -102 289 -189 344 -218 541 -346
680 -441 19 -14 100 -68 180 -121 80 -53 163 -109 185 -125 22 -16 119 -82
215 -147 96 -65 177 -121 178 -126 8 -19 47 -5 125 46 45 30 181 122 302 205
198 134 615 411 683 452 223 136 684 433 688 444 2 6 3 677 2 1493 -3 1480 -3
1482 -23 1469z"/>
<path d="M2392 4008 c-7 -7 -12 -44 -12 -95 0 -100 -10 -95 180 -91 l135 3 3
98 3 97 -62 0 -62 0 6 -46 c8 -71 1 -84 -44 -84 -21 0 -41 4 -44 10 -3 5 -6
34 -6 65 l-1 55 -42 0 c-23 0 -47 -5 -54 -12z"/>
<path d="M1025 3908 c-10 -62 -13 -174 -5 -218 6 -35 17 -52 52 -82 23 -20 54
-43 68 -50 14 -7 53 -32 86 -55 34 -24 64 -43 68 -43 3 0 31 -17 63 -38 85
-57 281 -180 418 -263 66 -40 131 -80 145 -89 53 -36 174 -110 180 -110 4 0
10 59 14 130 6 102 4 133 -6 143 -22 22 -330 232 -448 306 -30 19 -133 86
-228 148 -94 62 -175 113 -178 113 -3 0 -33 19 -67 42 -34 24 -71 48 -82 54
-11 5 -32 18 -47 28 l-27 18 -6 -34z"/>
<path d="M4020 3911 c-25 -14 -73 -45 -107 -68 -34 -24 -65 -43 -68 -43 -4 0
-86 -53 -183 -117 -97 -65 -181 -120 -187 -123 -19 -9 -310 -205 -379 -255
-120 -87 -113 -73 -110 -214 2 -68 5 -126 8 -129 3 -2 27 8 53 24 26 16 53 31
59 34 20 10 390 242 536 337 54 35 99 63 102 63 4 0 132 83 268 174 67 45 71
57 61 209 l-8 135 -45 -27z"/>
<path d="M2398 3723 c-16 -4 -18 -22 -20 -171 -2 -164 0 -223 5 -229 6 -5 318
-6 323 -1 10 10 4 369 -6 389 -10 17 -22 19 -148 18 -75 -1 -145 -3 -154 -6z"/>
<path d="M1026 3371 c-4 -60 -4 -130 0 -156 6 -45 10 -49 73 -90 67 -44 104
-65 201 -118 130 -71 146 -80 172 -98 15 -11 32 -35 38 -54 10 -31 22 -41 105
-80 51 -25 98 -45 104 -45 6 0 19 -4 29 -9 9 -6 55 -24 102 -41 103 -38 140
-54 204 -87 26 -13 50 -23 51 -21 2 2 7 49 11 105 7 101 2 153 -16 153 -5 0
-78 44 -162 98 -84 54 -182 115 -218 136 -36 20 -94 55 -130 78 -36 22 -139
86 -230 141 -91 55 -185 114 -210 131 -43 30 -106 66 -114 66 -2 0 -7 -49 -10
-109z"/>
<path d="M3987 3432 c-43 -26 -135 -83 -205 -128 -70 -44 -147 -93 -172 -107
-25 -15 -76 -47 -115 -72 -38 -25 -77 -48 -85 -52 -21 -10 -135 -79 -210 -128
-246 -158 -226 -133 -217 -283 4 -52 8 -97 10 -99 2 -2 22 6 43 17 50 25 203
92 324 140 174 69 213 91 260 141 25 26 92 77 150 112 235 143 266 162 284
179 17 15 19 32 17 169 0 84 -2 153 -3 155 -2 1 -38 -19 -81 -44z"/>
<path d="M2380 3175 l0 -45 155 0 c85 0 158 0 163 0 4 0 7 19 7 43 l0 42 -162
3 -163 2 0 -45z"/>
<path d="M2450 3023 c-35 -2 -68 -9 -72 -16 -4 -7 -8 -81 -8 -164 l0 -153 169
0 169 0 4 123 c1 67 1 142 -2 167 l-5 45 -95 1 c-52 0 -124 -1 -160 -3z"/>
<path d="M2372 2543 l3 -48 150 -3 c187 -3 195 -2 195 41 0 54 -8 57 -188 57
l-163 0 3 -47z"/>
<path d="M2360 2350 l0 -40 180 0 180 0 0 40 0 40 -180 0 -180 0 0 -40z"/>
<path d="M2200 2292 c0 -5 -12 -14 -27 -21 -51 -23 -233 -146 -233 -157 0 -16
45 -44 70 -44 11 0 51 20 89 45 38 25 73 45 79 45 11 0 20 -59 24 -165 l3 -70
-36 -3 c-29 -2 -41 2 -57 22 -11 15 -24 26 -28 26 -8 0 -69 -90 -91 -135 -14
-27 -23 -94 -15 -99 8 -5 207 80 262 111 l35 20 3 193 c2 187 2 194 -20 217
-21 22 -58 32 -58 15z"/>
<path d="M2816 2223 c-7 -93 -8 -311 0 -338 4 -14 47 -40 134 -82 70 -35 135
-63 144 -63 49 0 18 112 -53 192 l-44 49 -28 -30 c-19 -22 -37 -31 -58 -31
-38 0 -44 11 -26 46 10 19 15 58 15 111 0 45 4 85 10 88 9 6 121 -70 128 -87
7 -17 59 -7 80 15 12 13 22 26 22 29 0 4 -24 21 -52 38 -29 18 -55 35 -58 39
-13 16 -176 101 -194 101 -9 0 -15 -24 -20 -77z"/>
<path d="M2505 2228 c-2 -7 -6 -66 -9 -130 l-4 -118 26 0 c15 0 37 -3 50 -6
22 -6 22 -5 22 99 0 57 -3 119 -6 136 -6 27 -10 31 -41 31 -18 0 -36 -6 -38
-12z"/>
<path d="M1027 2213 c-13 -12 -8 -198 6 -214 6 -9 32 -22 57 -29 25 -8 50 -16
55 -20 6 -3 28 -12 50 -19 91 -31 254 -118 386 -207 77 -52 142 -94 145 -94 2
0 4 88 4 195 0 194 0 195 -22 199 -65 12 -254 59 -267 66 -20 10 -246 99 -281
110 -37 12 -125 21 -133 13z"/>
<path d="M4010 2209 c-95 -16 -150 -33 -330 -97 -47 -17 -135 -43 -197 -58
-62 -15 -114 -32 -115 -38 -2 -6 -2 -95 0 -198 l4 -186 36 34 c63 59 407 254
449 254 5 0 39 9 74 20 35 11 80 25 101 31 34 11 36 14 43 66 7 56 -3 184 -14
182 -3 -1 -26 -5 -51 -10z"/>
<path d="M1026 1794 c-9 -68 -7 -169 3 -197 6 -15 43 -45 96 -78 47 -30 138
-87 201 -126 63 -40 116 -73 119 -73 3 0 37 -21 77 -47 93 -59 176 -103 195
-103 13 0 15 11 10 68 -4 37 -7 101 -7 143 l0 77 -117 83 c-227 161 -345 227
-488 273 -44 14 -80 26 -81 26 -1 0 -4 -21 -8 -46z"/>
<path d="M2428 1793 c-20 -23 -98 -171 -98 -187 0 -3 -25 -58 -56 -123 -88
-186 -95 -202 -85 -221 5 -9 32 -65 60 -124 48 -100 71 -130 71 -93 0 8 4 23
9 33 12 22 105 217 144 302 31 69 35 96 40 318 l3 122 -31 0 c-21 0 -39 -9
-57 -27z"/>
<path d="M2580 1658 c0 -151 10 -221 33 -244 4 -4 7 -13 7 -20 0 -18 163 -354
172 -354 4 0 15 17 24 38 9 20 32 71 51 112 27 56 34 83 30 110 -2 20 -34 98
-71 173 -36 75 -66 139 -66 142 0 18 -84 173 -102 188 -11 9 -33 17 -49 17
l-29 0 0 -162z"/>
<path d="M3990 1805 c-98 -26 -134 -39 -210 -77 -136 -68 -278 -157 -357 -225
l-53 -45 0 -148 c0 -138 1 -149 18 -143 19 8 212 124 254 154 14 11 29 19 32
19 3 0 54 30 113 66 59 36 147 86 194 111 l86 45 7 60 c8 77 -3 198 -18 197
-6 0 -36 -7 -66 -14z"/>
<path d="M2530 1295 c0 -8 -4 -23 -9 -33 -28 -54 -136 -299 -145 -330 -6 -17
6 -44 50 -115 31 -50 69 -111 83 -134 14 -23 31 -42 37 -43 17 0 174 246 174
273 0 13 -8 41 -19 63 -10 21 -26 57 -36 79 -10 22 -33 74 -53 115 -19 41 -41
90 -49 108 -14 33 -33 43 -33 17z"/>
</g>
</svg>
